<?xml version="1.0" encoding="UTF-8"?>
<svg id="Layer_1" data-name="Layer 1" xmlns="http://www.w3.org/2000/svg" viewBox="0 0 488.69 167.07">
  <defs>
    <style>
      .cls-1 {
        fill: #ff036a;
      }

      .cls-2 {
        fill: #19f3be;
      }

      .cls-3, .cls-4 {
        fill: #4bafff;
      }

      .cls-4 {
        font-family: Gotham-Light, 'Gotham Light';
        font-size: 55px;
        font-weight: 300;
        letter-spacing: -.02em;
      }
    </style>
  </defs>
  <g>
    <path class="cls-2" d="M99.63,94.69c-24.21,0-43.9-19.69-43.9-43.9S75.42,6.89,99.63,6.89s43.9,19.69,43.9,43.9-19.69,43.9-43.9,43.9Zm0-83.8c-22,0-39.9,17.9-39.9,39.9s17.9,39.9,39.9,39.9,39.9-17.9,39.9-39.9S121.63,10.89,99.63,10.89Z"/>
    <path class="cls-1" d="M50.81,101.61c-.53,0-1.04-.21-1.41-.59L.59,52.21c-.78-.78-.78-2.05,0-2.83L49.4,.56c.75-.75,2.08-.75,2.83,0l48.82,48.82c.78,.78,.78,2.05,0,2.83l-48.82,48.82c-.38,.38-.88,.59-1.41,.59ZM4.83,50.79l45.99,45.99,45.99-45.99L50.81,4.8,4.83,50.79Z"/>
    <path class="cls-3" d="M72.33,153.54c-.35,0-.69-.09-1-.27l-41.66-24.05c-.62-.36-1-1.02-1-1.73v-48.1c0-.71,.38-1.38,1-1.73l41.66-24.05c.62-.36,1.38-.36,2,0l41.66,24.05c.62,.36,1,1.02,1,1.73v48.1c0,.71-.38,1.38-1,1.73l-41.66,24.05c-.31,.18-.65,.27-1,.27Zm-39.66-27.2l39.66,22.89,39.66-22.89v-45.79l-39.66-22.89-39.66,22.89v45.79Z"/>
    <path class="cls-2" d="M99.63,94.69c-1.1,0-2-.9-2-2s.9-2,2-2c22,0,39.9-17.9,39.9-39.9,0-1.1,.9-2,2-2s2,.9,2,2c0,24.21-19.69,43.9-43.9,43.9Z"/>
    <path class="cls-1" d="M77.09,75.34c-.51,0-1.02-.2-1.41-.59-.78-.78-.78-2.05,0-2.83l22.54-22.54c.78-.78,2.05-.78,2.83,0,.78,.78,.78,2.05,0,2.83l-22.54,22.54c-.39,.39-.9,.59-1.41,.59Z"/>
  </g>
  <g>
    <path class="cls-3" d="M158.69,47.01v-.16c0-11.44,9.12-21.36,20.8-21.36,7.46,0,12.2,3.32,15.98,7.17,.19,.19,.19,.51,0,.7l-2.11,2.17c-.19,.2-.51,.2-.71,0-3.43-3.45-7.37-6.36-13.24-6.36-9.28,0-16.48,7.76-16.48,17.52v.16c0,9.84,7.44,17.68,16.8,17.68,5.58,0,9.96-2.78,13.35-6.44,.18-.2,.49-.22,.69-.04l1.97,1.74c.21,.18,.23,.51,.04,.72-4.09,4.52-8.98,7.7-16.3,7.7-11.76,0-20.8-9.76-20.8-21.2Z"/>
    <path class="cls-3" d="M201.57,47.01v-.16c0-11.44,8.88-21.36,21.04-21.36s20.88,9.76,20.88,21.2v.16c0,11.44-8.88,21.36-21.04,21.36s-20.88-9.76-20.88-21.2Zm37.68,0v-.16c0-9.84-7.36-17.68-16.8-17.68s-16.64,7.92-16.64,17.52v.16c0,9.84,7.36,17.68,16.8,17.68s16.64-7.92,16.64-17.52Z"/>
    <path class="cls-3" d="M250.53,47.01v-.16c0-13.28,10-21.36,19.84-21.36,7.47,0,12.52,3.89,15.9,8.47,.29,.39,.9,.19,.9-.29V9.35c0-.28,.22-.5,.5-.5h2.92c.28,0,.5,.22,.5,.5v57.4c0,.28-.22,.5-.5,.5h-2.92c-.28,0-.5-.22-.5-.5v-7.02c0-.48-.62-.68-.9-.29-3.49,4.8-8.48,8.78-15.9,8.78-9.84,0-19.84-7.92-19.84-21.2Zm36.88-.08v-.16c0-10.48-8.16-17.52-16.64-17.52s-16,6.48-16,17.44v.16c0,10.72,7.44,17.6,16,17.6s16.64-7.12,16.64-17.52Z"/>
    <path class="cls-3" d="M299.97,46.93v-.16c0-11.84,8.32-21.28,19.36-21.28s18.72,9.28,18.72,21.36c0,.52,0,.79-.03,1.15-.02,.26-.24,.45-.5,.45h-32.84c-.29,0-.53,.26-.5,.55,.94,9.82,8.1,15.53,15.96,15.53,6.12,0,10.36-2.62,13.67-6.05,.19-.19,.49-.21,.69-.03l1.97,1.74c.21,.19,.23,.52,.03,.72-4.08,4.28-8.91,7.3-16.52,7.3-10.72,0-20-8.56-20-21.28Zm33.29-2c.29,0,.53-.25,.51-.55-.73-8.03-5.44-15.29-14.6-15.29-7.91,0-14.06,6.52-14.99,15.29-.03,.3,.21,.56,.5,.56h28.58Z"/>
    <path class="cls-3" d="M349.41,60.04v6.71c0,.28-.22,.5-.5,.5h-2.92c-.28,0-.5-.22-.5-.5V9.35c0-.28,.22-.5,.5-.5h2.92c.28,0,.5,.22,.5,.5v24.63c0,.48,.62,.68,.9,.29,3.49-4.8,8.48-8.78,15.9-8.78,9.84,0,19.84,7.92,19.84,21.2v.16c0,13.28-10,21.36-19.84,21.36-7.47,0-12.52-3.88-15.9-8.47-.29-.39-.9-.19-.9,.29Zm32.4-13.03v-.16c0-10.72-7.44-17.6-16-17.6s-16.64,7.12-16.64,17.52v.16c0,10.48,8.16,17.52,16.64,17.52s16-6.48,16-17.44Z"/>
    <path class="cls-3" d="M390.93,55.41v-.16c0-8.48,7.28-13.28,17.84-13.28,5.38,0,9.18,.65,12.9,1.6,.32,.08,.62-.16,.62-.48v-1.12c0-8.24-5.04-12.48-13.44-12.48-4.75,0-8.7,1.25-12.33,3.04-.26,.13-.57,.01-.68-.25l-1.05-2.5c-.1-.25,0-.54,.26-.65,4.33-1.97,8.62-3.32,14.04-3.32s9.92,1.52,12.88,4.48c2.72,2.72,4.16,6.48,4.16,11.52v24.94c0,.28-.22,.5-.5,.5h-2.84c-.28,0-.5-.22-.5-.5v-6.3c-2.8,3.92-7.84,7.76-15.6,7.76s-15.76-4.32-15.76-12.8Zm31.44-3.44v-4.25c0-.23-.15-.43-.37-.48-3.39-.85-7.84-1.75-13.47-1.75-8.64,0-13.44,3.84-13.44,9.52v.16c0,5.92,5.6,9.36,11.84,9.36,8.32,0,15.44-5.12,15.44-12.56Z"/>
    <path class="cls-3" d="M439.33,50.53v16.22c0,.28-.22,.5-.5,.5h-2.92c-.28,0-.5-.22-.5-.5V26.95c0-.28,.22-.5,.5-.5h2.92c.28,0,.5,.22,.5,.5v8.98c0,.52,.68,.69,.94,.23,3.4-6.14,9.5-10.44,16.65-10.36,.27,0,.5,.23,.5,.51v3.34c0,.27-.22,.49-.5,.49-15.03,.26-17.58,12.57-17.58,20.4Z"/>
  </g>
  <text class="cls-4" transform="translate(158.69 123.88)"><tspan x="0" y="0">paris</tspan></text>
</svg>