<svg id="Layer_1" data-name="Layer 1" xmlns="http://www.w3.org/2000/svg" viewBox="0 0 299.35 100.49"><defs><style>.cls-1{fill:#19f3be;}.cls-2{fill:#ff036a;}.cls-3{fill:#4bafff;}</style></defs><title>Artboard 1 copy 4</title><path class="cls-1" d="M64.9,62A28.73,28.73,0,1,1,93.63,33.24,28.76,28.76,0,0,1,64.9,62Zm0-54.84A26.12,26.12,0,1,0,91,33.24,26.14,26.14,0,0,0,64.9,7.13Z"/><path class="cls-2" d="M33,66.5a1.27,1.27,0,0,1-.92-.39L.08,34.17a1.31,1.31,0,0,1,0-1.85L32,.37a1.35,1.35,0,0,1,1.85,0l31.95,32a1.31,1.31,0,0,1,0,1.85L33.88,66.11A1.31,1.31,0,0,1,33,66.5ZM2.86,33.24,33,63.34l30.1-30.1L33,3.14Z"/><path class="cls-3" d="M47,100.49a1.25,1.25,0,0,1-.65-.18L19.11,84.57a1.3,1.3,0,0,1-.65-1.13V52a1.33,1.33,0,0,1,.65-1.14L46.38,35.08a1.31,1.31,0,0,1,1.3,0L75,50.82A1.33,1.33,0,0,1,75.6,52V83.44A1.3,1.3,0,0,1,75,84.57L47.68,100.31A1.25,1.25,0,0,1,47,100.49ZM21.08,82.68l26,15,26-15v-30L47,37.73l-25.95,15Z"/><path class="cls-1" d="M64.9,62a1.31,1.31,0,1,1,0-2.61A26.14,26.14,0,0,0,91,33.24a1.31,1.31,0,1,1,2.62,0A28.76,28.76,0,0,1,64.9,62Z"/><path class="cls-2" d="M50.14,49.3a1.27,1.27,0,0,1-.92-.38,1.31,1.31,0,0,1,0-1.85L64,32.32a1.31,1.31,0,1,1,1.86,1.85L51.07,48.92A1.28,1.28,0,0,1,50.14,49.3Z"/><path class="cls-3" d="M103.55,35.34v-.11a13.74,13.74,0,0,1,24.07-9.29.32.32,0,0,1,0,.46l-1.38,1.42a.32.32,0,0,1-.46,0c-2.25-2.25-4.82-4.16-8.67-4.16-6.07,0-10.78,5.08-10.78,11.47v.1c0,6.44,4.87,11.57,11,11.57a11.83,11.83,0,0,0,8.74-4.21.32.32,0,0,1,.45,0l1.3,1.14a.33.33,0,0,1,0,.47c-2.67,3-5.88,5-10.67,5A13.74,13.74,0,0,1,103.55,35.34Z"/><path class="cls-3" d="M131.61,35.34v-.11a13.8,13.8,0,0,1,13.77-14,13.66,13.66,0,0,1,13.67,13.88v.1a13.79,13.79,0,0,1-13.77,14A13.65,13.65,0,0,1,131.61,35.34Zm24.67,0v-.11c0-6.44-4.82-11.57-11-11.57-6.34,0-10.89,5.18-10.89,11.47v.1c0,6.44,4.82,11.57,11,11.57C151.72,46.8,156.28,41.62,156.28,35.34Z"/><path class="cls-3" d="M163.66,35.34v-.11c0-8.69,6.54-14,13-14a12.56,12.56,0,0,1,10.41,5.54.32.32,0,0,0,.59-.19V10.69a.32.32,0,0,1,.32-.33h1.91a.33.33,0,0,1,.33.33V48.25a.32.32,0,0,1-.33.33H188a.32.32,0,0,1-.32-.33V43.66a.32.32,0,0,0-.59-.19c-2.29,3.14-5.55,5.74-10.41,5.74C170.2,49.21,163.66,44,163.66,35.34Zm24.13-.06v-.1A11.15,11.15,0,0,0,176.9,23.71c-5.81,0-10.47,4.24-10.47,11.42v.1c0,7,4.87,11.52,10.47,11.52A11.18,11.18,0,0,0,187.79,35.28Z"/><path class="cls-3" d="M196,35.28v-.1c0-7.75,5.45-13.93,12.67-13.93,7.49,0,12.25,6.07,12.25,14,0,.34,0,.52,0,.75a.32.32,0,0,1-.32.3h-21.5a.33.33,0,0,0-.32.36c.61,6.43,5.3,10.16,10.44,10.16a11.86,11.86,0,0,0,8.94-4,.32.32,0,0,1,.45,0L219.89,44a.32.32,0,0,1,0,.47,13.92,13.92,0,0,1-10.81,4.78C202.09,49.21,196,43.61,196,35.28ZM217.8,34a.33.33,0,0,0,.33-.35c-.48-5.26-3.56-10-9.55-10-5.18,0-9.21,4.27-9.81,10a.33.33,0,0,0,.33.36Z"/><path class="cls-3" d="M228.37,43.86v4.39a.33.33,0,0,1-.33.33h-1.91a.33.33,0,0,1-.33-.33V10.69a.33.33,0,0,1,.33-.33H228a.33.33,0,0,1,.33.33V26.8a.33.33,0,0,0,.59.2c2.28-3.15,5.55-5.75,10.4-5.75,6.44,0,13,5.18,13,13.88v.1c0,8.69-6.55,14-13,14A12.55,12.55,0,0,1,229,43.67.32.32,0,0,0,228.37,43.86Zm21.2-8.52v-.11c0-7-4.86-11.52-10.47-11.52a11.18,11.18,0,0,0-10.89,11.47v.1A11.15,11.15,0,0,0,239.1,46.75C244.91,46.75,249.57,42.51,249.57,35.34Z"/><path class="cls-3" d="M255.54,40.83v-.1c0-5.55,4.77-8.69,11.68-8.69a32.14,32.14,0,0,1,8.44,1,.33.33,0,0,0,.41-.31V32c0-5.4-3.3-8.17-8.8-8.17a17.79,17.79,0,0,0-8.07,2,.32.32,0,0,1-.44-.16l-.69-1.64a.33.33,0,0,1,.17-.43,21.16,21.16,0,0,1,9.19-2.17c3.61,0,6.49,1,8.43,2.93,1.78,1.78,2.72,4.24,2.72,7.54V48.25a.33.33,0,0,1-.33.33h-1.86a.32.32,0,0,1-.32-.33V44.13a12.16,12.16,0,0,1-10.21,5.08C260.88,49.21,255.54,46.38,255.54,40.83Zm20.58-2.25V35.8a.33.33,0,0,0-.25-.32,35,35,0,0,0-8.81-1.14c-5.65,0-8.8,2.51-8.8,6.23v.11c0,3.87,3.67,6.12,7.75,6.12C271.46,46.8,276.12,43.45,276.12,38.58Z"/><path class="cls-3" d="M287.22,37.64V48.25a.33.33,0,0,1-.33.33H285a.33.33,0,0,1-.33-.33v-26a.33.33,0,0,1,.33-.33h1.91a.33.33,0,0,1,.33.33v5.87a.32.32,0,0,0,.61.15,12.45,12.45,0,0,1,10.89-6.78.33.33,0,0,1,.33.33V24a.32.32,0,0,1-.32.32C288.89,24.46,287.22,32.52,287.22,37.64Z"/><path class="cls-3" d="M106.34,66h1.47v3.42a7.39,7.39,0,0,1,6.3-3.78,7.6,7.6,0,0,1,7.44,8v.06a7.65,7.65,0,0,1-7.44,8,7.36,7.36,0,0,1-6.3-3.66v8.1h-1.47ZM120,73.68v-.06c0-4-2.79-6.6-6-6.6a6.41,6.41,0,0,0-6.24,6.57v.06A6.39,6.39,0,0,0,114,80.22C117.29,80.22,120,77.79,120,73.68Z"/><path class="cls-3" d="M124.49,73.65v-.06c0-4.44,3.12-8,7.26-8,4.29,0,7,3.48,7,8a3.82,3.82,0,0,1,0,.6H126.05c.27,3.81,3,6,6,6a6.87,6.87,0,0,0,5.25-2.4l1,.9A8,8,0,0,1,132,81.63,7.6,7.6,0,0,1,124.49,73.65Zm12.69-.75c-.21-3.09-2-5.94-5.49-5.94-3,0-5.37,2.55-5.64,5.94Z"/><path class="cls-3" d="M143.27,77.34v-10h-2.22V66h2.22V61.08h1.47V66h5.37v1.35h-5.37v9.87c0,2.19,1.29,3,3.06,3a5.12,5.12,0,0,0,2.25-.54V81a5.62,5.62,0,0,1-2.49.54C145.19,81.54,143.27,80.25,143.27,77.34Z"/><path class="cls-3" d="M152.36,73.65v-.06c0-4.44,3.12-8,7.26-8s7,3.48,7,8a3.82,3.82,0,0,1,0,.6H153.92c.27,3.81,3,6,6,6a6.87,6.87,0,0,0,5.25-2.4l1,.9a8,8,0,0,1-6.33,2.88A7.6,7.6,0,0,1,152.36,73.65Zm12.69-.75c-.21-3.09-2-5.94-5.49-5.94-3,0-5.37,2.55-5.64,5.94Z"/><path class="cls-3" d="M170.33,66h1.47v4.35a7.23,7.23,0,0,1,6.78-4.59v1.62h-.15c-3.54,0-6.63,2.67-6.63,7.65v6.27h-1.47Z"/><path class="cls-3" d="M183.2,78v3.3h-1.47V59.37h1.47v10a7.39,7.39,0,0,1,6.3-3.78,7.6,7.6,0,0,1,7.44,8v.06a7.65,7.65,0,0,1-7.44,8A7.36,7.36,0,0,1,183.2,78Zm12.15-4.29v-.06c0-4-2.79-6.6-6-6.6a6.41,6.41,0,0,0-6.24,6.57v.06a6.39,6.39,0,0,0,6.24,6.57C192.68,80.22,195.35,77.79,195.35,73.68Z"/><path class="cls-3" d="M199.88,73.68v-.06a7.91,7.91,0,0,1,7.89-8,7.82,7.82,0,0,1,7.83,8v.06a7.91,7.91,0,0,1-7.89,8A7.82,7.82,0,0,1,199.88,73.68Zm14.13,0v-.06a6.41,6.41,0,0,0-6.3-6.63,6.31,6.31,0,0,0-6.24,6.57v.06a6.41,6.41,0,0,0,6.3,6.63A6.31,6.31,0,0,0,214,73.68Z"/><path class="cls-3" d="M219.53,66H221v4.35a7.23,7.23,0,0,1,6.78-4.59v1.62h-.15C224.09,67.35,221,70,221,75v6.27h-1.47Z"/><path class="cls-3" d="M229.14,73.68v-.06a7.91,7.91,0,0,1,7.89-8,7.82,7.82,0,0,1,7.83,8v.06a7.91,7.91,0,0,1-7.89,8A7.82,7.82,0,0,1,229.14,73.68Zm14.13,0v-.06A6.41,6.41,0,0,0,237,67a6.31,6.31,0,0,0-6.24,6.57v.06a6.41,6.41,0,0,0,6.3,6.63A6.31,6.31,0,0,0,243.27,73.68Z"/><path class="cls-3" d="M248.49,75.33V66H250v9.09c0,3.15,1.77,5.22,4.86,5.22a5.24,5.24,0,0,0,5.31-5.46V66h1.47v15.3h-1.47V78.42a6,6,0,0,1-5.52,3.21C250.74,81.63,248.49,79,248.49,75.33Z"/><path class="cls-3" d="M266.28,83.79l.87-1.2a10,10,0,0,0,6.18,2.16c3.51,0,6-2,6-5.94V76.59a7.61,7.61,0,0,1-6.39,3.54,7.25,7.25,0,0,1-7.35-7.2v-.06a7.28,7.28,0,0,1,7.35-7.26A7.61,7.61,0,0,1,279.33,69V66h1.47V78.9a7.09,7.09,0,0,1-1.95,5.19,7.74,7.74,0,0,1-5.55,2A11.55,11.55,0,0,1,266.28,83.79ZM279.42,72.9v-.06c0-3.54-3.15-5.82-6.33-5.82a5.66,5.66,0,0,0-5.91,5.79v.06a5.81,5.81,0,0,0,5.91,5.85C276.27,78.72,279.42,76.38,279.42,72.9Z"/><path class="cls-3" d="M285.78,59.37h1.47v9.45a6,6,0,0,1,5.52-3.21c3.87,0,6.12,2.64,6.12,6.3v9.36h-1.47V72.18c0-3.15-1.77-5.22-4.86-5.22a5.24,5.24,0,0,0-5.31,5.46v8.85h-1.47Z"/></svg>