<?xml version="1.0" encoding="utf-8"?>
<!-- Generator: Adobe Illustrator 27.4.0, SVG Export Plug-In . SVG Version: 6.00 Build 0)  -->
<svg version="1.1" id="Layer_1" xmlns="http://www.w3.org/2000/svg" xmlns:xlink="http://www.w3.org/1999/xlink" x="0px" y="0px"
	 viewBox="0 0 960 560" style="enable-background:new 0 0 960 560;" xml:space="preserve">
<style type="text/css">
	.st0{fill:#19F3BE;}
	.st1{fill:#FF036A;}
	.st2{fill:#4BAFFF;}
	.st3{fill:none;}
	.st4{font-family:'Gotham-Light';}
	.st5{font-size:55px;}
	.st6{letter-spacing:-1;}
</style>
<g>
	<path class="st0" d="M361.37,298.95c-24.21,0-43.9-19.69-43.9-43.9s19.69-43.9,43.9-43.9s43.9,19.69,43.9,43.9
		S385.57,298.95,361.37,298.95z M361.37,215.15c-22,0-39.9,17.9-39.9,39.9s17.9,39.9,39.9,39.9s39.9-17.9,39.9-39.9
		S383.37,215.15,361.37,215.15z"/>
	<path class="st1" d="M312.55,305.86c-0.53,0-1.04-0.21-1.41-0.59l-48.81-48.82c-0.78-0.78-0.78-2.05,0-2.83l48.81-48.82
		c0.75-0.75,2.08-0.75,2.83,0l48.82,48.82c0.78,0.78,0.78,2.05,0,2.83l-48.82,48.82C313.59,305.65,313.08,305.86,312.55,305.86z
		 M266.56,255.05l45.99,45.99l45.99-45.99l-45.99-45.99L266.56,255.05z"/>
	<path class="st2" d="M334.06,357.8c-0.35,0-0.69-0.09-1-0.27l-41.66-24.05c-0.62-0.36-1-1.02-1-1.73v-48.1c0-0.71,0.38-1.38,1-1.73
		l41.66-24.05c0.62-0.36,1.38-0.36,2,0l41.66,24.05c0.62,0.36,1,1.02,1,1.73v48.1c0,0.71-0.38,1.38-1,1.73l-41.66,24.05
		C334.75,357.71,334.41,357.8,334.06,357.8z M294.41,330.59l39.66,22.89l39.66-22.89V284.8l-39.66-22.89l-39.66,22.89V330.59z"/>
	<path class="st0" d="M361.37,298.95c-1.1,0-2-0.9-2-2s0.9-2,2-2c22,0,39.9-17.9,39.9-39.9c0-1.1,0.9-2,2-2s2,0.9,2,2
		C405.27,279.26,385.57,298.95,361.37,298.95z"/>
	<path class="st1" d="M338.82,279.59c-0.51,0-1.02-0.2-1.41-0.59c-0.78-0.78-0.78-2.05,0-2.83l22.54-22.54
		c0.78-0.78,2.05-0.78,2.83,0c0.78,0.78,0.78,2.05,0,2.83l-22.54,22.54C339.84,279.4,339.33,279.59,338.82,279.59z"/>
</g>
<g>
	<path class="st2" d="M420.42,251.27v-0.16c0-11.44,9.12-21.36,20.8-21.36c7.46,0,12.2,3.32,15.98,7.17c0.19,0.19,0.19,0.51,0,0.7
		l-2.11,2.17c-0.19,0.2-0.51,0.2-0.71,0c-3.43-3.45-7.37-6.36-13.24-6.36c-9.28,0-16.48,7.76-16.48,17.52v0.16
		c0,9.84,7.44,17.68,16.8,17.68c5.58,0,9.96-2.78,13.35-6.44c0.18-0.2,0.49-0.22,0.69-0.04l1.97,1.74c0.21,0.18,0.23,0.51,0.04,0.72
		c-4.09,4.52-8.98,7.7-16.3,7.7C429.46,272.47,420.42,262.71,420.42,251.27z"/>
	<path class="st2" d="M463.3,251.27v-0.16c0-11.44,8.88-21.36,21.04-21.36c12.08,0,20.88,9.76,20.88,21.2v0.16
		c0,11.44-8.88,21.36-21.04,21.36C472.1,272.47,463.3,262.71,463.3,251.27z M500.99,251.27v-0.16c0-9.84-7.36-17.68-16.8-17.68
		c-9.68,0-16.64,7.92-16.64,17.52v0.16c0,9.84,7.36,17.68,16.8,17.68C494.02,268.79,500.99,260.87,500.99,251.27z"/>
	<path class="st2" d="M512.26,251.27v-0.16c0-13.28,10-21.36,19.84-21.36c7.47,0,12.52,3.89,15.9,8.47c0.29,0.39,0.9,0.19,0.9-0.29
		v-24.31c0-0.28,0.22-0.5,0.5-0.5h2.92c0.28,0,0.5,0.22,0.5,0.5v57.4c0,0.28-0.22,0.5-0.5,0.5h-2.92c-0.28,0-0.5-0.22-0.5-0.5v-7.03
		c0-0.48-0.62-0.68-0.9-0.29c-3.49,4.8-8.48,8.78-15.9,8.78C522.26,272.47,512.26,264.55,512.26,251.27z M549.15,251.19v-0.16
		c0-10.48-8.16-17.52-16.64-17.52c-8.88,0-16,6.48-16,17.44v0.16c0,10.72,7.44,17.6,16,17.6
		C540.99,268.71,549.15,261.59,549.15,251.19z"/>
	<path class="st2" d="M561.7,251.19v-0.16c0-11.84,8.32-21.28,19.36-21.28c11.44,0,18.72,9.28,18.72,21.36c0,0.52,0,0.79-0.03,1.15
		c-0.02,0.26-0.24,0.45-0.5,0.45l-32.84,0c-0.29,0-0.53,0.26-0.5,0.55c0.94,9.82,8.1,15.53,15.96,15.53
		c6.12,0,10.36-2.62,13.67-6.05c0.19-0.19,0.49-0.21,0.69-0.03l1.97,1.74c0.21,0.19,0.23,0.52,0.03,0.72
		c-4.08,4.28-8.91,7.3-16.52,7.3C570.98,272.47,561.7,263.91,561.7,251.19z M594.99,249.19c0.29,0,0.53-0.25,0.51-0.55
		c-0.73-8.03-5.44-15.29-14.6-15.29c-7.91,0-14.06,6.52-14.99,15.29c-0.03,0.3,0.21,0.56,0.5,0.56H594.99z"/>
	<path class="st2" d="M611.14,264.3v6.71c0,0.28-0.22,0.5-0.5,0.5h-2.92c-0.28,0-0.5-0.22-0.5-0.5v-57.4c0-0.28,0.22-0.5,0.5-0.5
		h2.92c0.28,0,0.5,0.22,0.5,0.5v24.63c0,0.48,0.62,0.68,0.9,0.29c3.49-4.8,8.48-8.78,15.9-8.78c9.84,0,19.84,7.92,19.84,21.2v0.16
		c0,13.28-10,21.36-19.84,21.36c-7.47,0-12.52-3.89-15.9-8.47C611.76,263.61,611.14,263.81,611.14,264.3z M643.54,251.27v-0.16
		c0-10.72-7.44-17.6-16-17.6c-8.48,0-16.64,7.12-16.64,17.52v0.16c0,10.48,8.16,17.52,16.64,17.52
		C636.42,268.71,643.54,262.23,643.54,251.27z"/>
	<path class="st2" d="M652.66,259.67v-0.16c0-8.48,7.28-13.28,17.84-13.28c5.38,0,9.18,0.65,12.9,1.6c0.32,0.08,0.62-0.16,0.62-0.48
		v-1.12c0-8.24-5.04-12.48-13.44-12.48c-4.75,0-8.7,1.25-12.33,3.04c-0.26,0.13-0.57,0.01-0.68-0.25l-1.05-2.5
		c-0.1-0.25,0.01-0.54,0.26-0.65c4.33-1.97,8.62-3.32,14.04-3.32c5.52,0,9.92,1.52,12.88,4.48c2.72,2.72,4.16,6.48,4.16,11.52v24.94
		c0,0.28-0.22,0.5-0.5,0.5h-2.84c-0.28,0-0.5-0.22-0.5-0.5v-6.3c-2.8,3.92-7.84,7.76-15.6,7.76
		C660.82,272.47,652.66,268.15,652.66,259.67z M684.1,256.23v-4.25c0-0.23-0.15-0.43-0.37-0.48c-3.39-0.85-7.84-1.75-13.47-1.75
		c-8.64,0-13.44,3.84-13.44,9.52v0.16c0,5.92,5.6,9.36,11.84,9.36C676.98,268.79,684.1,263.67,684.1,256.23z"/>
	<path class="st2" d="M701.06,254.79v16.22c0,0.28-0.22,0.5-0.5,0.5h-2.92c-0.28,0-0.5-0.22-0.5-0.5v-39.8c0-0.28,0.22-0.5,0.5-0.5
		h2.92c0.28,0,0.5,0.22,0.5,0.5v8.98c0,0.52,0.68,0.69,0.94,0.23c3.4-6.14,9.5-10.44,16.65-10.36c0.27,0,0.5,0.23,0.5,0.51v3.34
		c0,0.27-0.22,0.49-0.5,0.49C703.61,234.66,701.06,246.97,701.06,254.79z"/>
</g>
<rect x="420.42" y="287.99" class="st3" width="330" height="83.33"/>
<text transform="matrix(1 0 0 1 420.4241 328.1396)" class="st2 st4 st5 st6">virtual UK</text>
</svg>
