<?xml version="1.0" encoding="UTF-8" standalone="no"?>
<!-- Generator: Adobe Illustrator 19.0.0, SVG Export Plug-In . SVG Version: 6.00 Build 0)  -->

<svg
   xmlns:dc="http://purl.org/dc/elements/1.1/"
   xmlns:cc="http://creativecommons.org/ns#"
   xmlns:rdf="http://www.w3.org/1999/02/22-rdf-syntax-ns#"
   xmlns:svg="http://www.w3.org/2000/svg"
   xmlns="http://www.w3.org/2000/svg"
   xmlns:sodipodi="http://sodipodi.sourceforge.net/DTD/sodipodi-0.dtd"
   xmlns:inkscape="http://www.inkscape.org/namespaces/inkscape"
   version="1.1"
   id="Layer_1"
   x="0px"
   y="0px"
   width="377.61255"
   height="108.96375"
   viewBox="0 0 377.61255 108.96375"
   xml:space="preserve"
   sodipodi:docname="codebar-logo-banner.svg"
   inkscape:version="0.92.4 5da689c313, 2019-01-14"><metadata
   id="metadata4551"><rdf:RDF><cc:Work
       rdf:about=""><dc:format>image/svg+xml</dc:format><dc:type
         rdf:resource="http://purl.org/dc/dcmitype/StillImage" /><dc:title></dc:title></cc:Work></rdf:RDF></metadata><defs
   id="defs4549">
	
	
	
	
	
	
	
	
	
	
	
	
</defs><sodipodi:namedview
   pagecolor="#ffffff"
   bordercolor="#666666"
   borderopacity="1"
   objecttolerance="10"
   gridtolerance="10"
   guidetolerance="10"
   inkscape:pageopacity="0"
   inkscape:pageshadow="2"
   inkscape:window-width="1920"
   inkscape:window-height="1016"
   id="namedview4547"
   showgrid="false"
   inkscape:zoom="1.4902275"
   inkscape:cx="159.95489"
   inkscape:cy="85.763959"
   inkscape:window-x="1920"
   inkscape:window-y="27"
   inkscape:window-maximized="1"
   inkscape:current-layer="Layer_1"
   fit-margin-top="5"
   fit-margin-left="5"
   fit-margin-right="5"
   fit-margin-bottom="5" />
<style
   type="text/css"
   id="style4518">
	.st0{fill:#00FFCC;}
	.st1{fill:#FF0066;}
	.st2{fill:#4BAFFF;}
	.st3{fill:#19F3BE;}
	.st4{fill:#FF036A;}
</style>

<path
   style="opacity:1;fill:#00ffcc;stroke:none;stroke-width:0.44584388;stroke-opacity:1"
   inkscape:connector-curvature="0"
   id="path4520"
   d="m 353.04001,77.703553 c -10.78941,0 -19.57255,-8.783119 -19.57255,-19.572542 0,-10.789422 8.78314,-19.57255 19.57255,-19.57255 10.78942,0 19.57255,8.783128 19.57255,19.57255 0,10.789423 -8.78313,19.572542 -19.57255,19.572542 z m 0,-37.361715 c -9.80857,0 -17.78917,7.980612 -17.78917,17.789173 0,9.808561 7.9806,17.789174 17.78917,17.789174 9.80857,0 17.78916,-7.980613 17.78916,-17.789174 0,-9.808561 -7.98059,-17.789173 -17.78916,-17.789173 z"
   class="st0" /><path
   style="opacity:1;fill:#ff0066;stroke:none;stroke-width:0.44584388;stroke-opacity:1"
   inkscape:connector-curvature="0"
   id="path4522"
   d="m 331.23825,80.779875 c -0.22294,0 -0.44585,-0.08912 -0.62419,-0.267502 L 308.85689,58.755188 c -0.17833,-0.178338 -0.26752,-0.401257 -0.26752,-0.624177 0,-0.222919 0.0892,-0.445849 0.26752,-0.624187 l 21.75717,-21.757173 c 0.35668,-0.356676 0.89168,-0.356676 1.24837,0 l 21.75718,21.757173 c 0.35667,0.356676 0.35667,0.891689 0,1.248364 L 331.907,80.512373 c -0.17833,0.178337 -0.40126,0.267502 -0.66875,0.267502 z m -20.46424,-22.648864 20.50882,20.508822 20.50882,-20.508822 -20.50882,-20.50882 z"
   class="st1" /><path
   style="opacity:1;fill:#4bafff;stroke:none;stroke-width:0.44584388;stroke-opacity:1"
   inkscape:connector-curvature="0"
   id="path4524"
   d="m 340.86847,103.96376 c -0.13375,0 -0.3121,-0.0445 -0.44583,-0.13376 L 321.83095,93.085173 c -0.26752,-0.178338 -0.44586,-0.445849 -0.44586,-0.757943 V 70.882149 c 0,-0.312094 0.17834,-0.624187 0.44586,-0.757944 l 18.59169,-10.700248 c 0.26749,-0.178337 0.62417,-0.178337 0.89168,0 l 18.59169,10.700248 c 0.2675,0.178339 0.44584,0.44585 0.44584,0.757944 V 92.32723 c 0,0.312094 -0.17834,0.624187 -0.44584,0.757943 l -18.59169,10.700257 c -0.17833,0.13376 -0.31209,0.17833 -0.44585,0.17833 z m -17.7,-12.126951 17.7,10.209821 17.7,-10.209821 V 71.417162 l -17.7,-10.209829 -17.7,10.209829 z"
   class="st2" /><path
   style="opacity:1;fill:#19f3be;stroke:none;stroke-width:0.44584388;stroke-opacity:1"
   inkscape:connector-curvature="0"
   id="path4526"
   d="m 353.04001,77.703553 c -0.49043,0 -0.89169,-0.401257 -0.89169,-0.891689 0,-0.490422 0.40126,-0.891679 0.89169,-0.891679 9.80857,0 17.78916,-7.980613 17.78916,-17.789174 0,-0.490431 0.40126,-0.891688 0.89169,-0.891688 0.49044,0 0.8917,0.401257 0.8917,0.891688 0,10.789423 -8.78313,19.572542 -19.57255,19.572542 z"
   class="st3" /><path
   style="opacity:1;fill:#ff036a;stroke:none;stroke-width:0.44584388;stroke-opacity:1"
   inkscape:connector-curvature="0"
   id="path4528"
   d="m 342.96394,69.098773 c -0.22293,0 -0.44585,-0.08912 -0.62418,-0.267513 -0.35668,-0.356674 -0.35668,-0.891688 0,-1.248363 l 10.03149,-10.03148 c 0.35667,-0.356675 0.89168,-0.356675 1.24836,0 0.35667,0.356675 0.35667,0.891687 0,1.248363 l -10.03149,10.03148 c -0.17834,0.178338 -0.40126,0.267513 -0.62418,0.267513 z"
   class="st4" /><path
   style="fill:#4bafff;stroke:none;stroke-width:1.01279187;stroke-opacity:1"
   inkscape:connector-curvature="0"
   id="path4530"
   d="M 5,43.2 V 43 c 0,-11.4 9.3343,-21.4 21.335543,-21.4 7.693105,0 12.514117,3.3 16.411957,7.2 0.205149,0.2 0.205149,0.5 0,0.7 l -2.15407,2.2 c -0.205149,0.2 -0.512873,0.2 -0.718023,0 -3.487541,-3.4 -7.59053,-6.4 -13.539864,-6.4 -9.539449,0 -16.9248297,7.8 -16.9248297,17.5 V 43 c 0,9.8 7.5905297,17.7 17.2325537,17.7 5.744185,0 10.257473,-2.8 13.745014,-6.4 0.205149,-0.2 0.512873,-0.2 0.718023,0 l 2.051494,1.7 c 0.20515,0.2 0.20515,0.5 0,0.7 -4.205563,4.5 -9.231725,7.7 -16.71968,7.7 C 14.3343,64.4 5,54.6 5,43.2 Z"
   class="st2" /><path
   style="fill:#4bafff;stroke:none;stroke-width:1.01279187;stroke-opacity:1"
   inkscape:connector-curvature="0"
   id="path4532"
   d="M 49.004558,43.2 V 43 c 0,-11.4 9.129151,-21.4 21.540693,-21.4 12.411542,0 21.438118,9.8 21.438118,21.2 V 43 c 0,11.4 -9.129151,21.4 -21.540693,21.4 -12.411542,0 -21.438118,-9.8 -21.438118,-21.2 z m 38.670672,0 V 43 c 0,-9.8 -7.59053,-17.7 -17.232554,-17.7 -9.949749,0 -17.027405,7.9 -17.027405,17.5 V 43 c 0,9.8 7.59053,17.7 17.232554,17.7 9.847174,0 17.027405,-7.9 17.027405,-17.5 z"
   class="st2" /><path
   style="fill:#4bafff;stroke:none;stroke-width:1.01279187;stroke-opacity:1"
   inkscape:connector-curvature="0"
   id="path4534"
   d="M 99.266174,43.2 V 43 c 0,-13.3 10.257476,-21.4 20.309796,-21.4 7.6931,0 12.82184,3.9 16.30938,8.5 0.30773,0.4 0.92317,0.2 0.92317,-0.3 V 5.5 c 0,-0.3 0.20515,-0.5 0.51288,-0.5 h 2.97467 c 0.30772,0 0.51287,0.2 0.51287,0.5 v 57.4 c 0,0.3 -0.20515,0.5 -0.51287,0.5 h -2.97467 c -0.30773,0 -0.51288,-0.2 -0.51288,-0.5 v -7 c 0,-0.5 -0.61544,-0.7 -0.92317,-0.3 -3.59011,4.8 -8.71885,8.8 -16.30938,8.8 -10.05232,0 -20.309796,-7.9 -20.309796,-21.2 z m 37.850076,-0.1 v -0.2 c 0,-10.5 -8.41113,-17.5 -17.02741,-17.5 -9.12915,0 -16.41195,6.5 -16.41195,17.4 V 43 c 0,10.7 7.59053,17.6 16.41195,17.6 8.61628,0 17.02741,-7.1 17.02741,-17.5 z"
   class="st2" /><path
   style="fill:#4bafff;stroke:none;stroke-width:1.01279187;stroke-opacity:1"
   inkscape:connector-curvature="0"
   id="path4536"
   d="m 149.93809,43.1 v -0.2 c 0,-11.8 8.5137,-21.3 19.8995,-21.3 11.69352,0 19.18147,9.3 19.18147,21.4 0,0.5 0,0.8 0,1.1 0,0.3 -0.20515,0.5 -0.51287,0.5 h -33.64451 c -0.30773,0 -0.51288,0.3 -0.51288,0.6 0.92318,9.8 8.30856,15.5 16.41196,15.5 6.25706,0 10.66777,-2.6 14.05274,-6.1 0.20515,-0.2 0.51287,-0.2 0.71802,0 l 2.05149,1.7 c 0.20515,0.2 0.20515,0.5 0,0.7 -4.20556,4.3 -9.12915,7.3 -16.92483,7.3 -11.18064,0.1 -20.72009,-8.5 -20.72009,-21.2 z m 34.15738,-2 c 0.30773,0 0.51288,-0.3 0.51288,-0.5 -0.71803,-8 -5.53904,-15.3 -14.97591,-15.3 -8.10341,0 -14.46304,6.5 -15.38621,15.3 0,0.3 0.20515,0.6 0.51287,0.6 h 29.33637 z"
   class="st2" /><path
   style="fill:#4bafff;stroke:none;stroke-width:1.01279187;stroke-opacity:1"
   inkscape:connector-curvature="0"
   id="path4538"
   d="m 200.71258,56.2 v 6.7 c 0,0.3 -0.20515,0.5 -0.51287,0.5 h -2.97467 c -0.30773,0 -0.51288,-0.2 -0.51288,-0.5 V 5.5 c 0,-0.3 0.20515,-0.5 0.51288,-0.5 h 2.97467 c 0.30772,0 0.51287,0.2 0.51287,0.5 v 24.6 c 0,0.5 0.61545,0.7 0.92317,0.3 3.59012,-4.8 8.71885,-8.8 16.30938,-8.8 10.05233,0 20.3098,7.9 20.3098,21.2 V 43 c 0,13.3 -10.25747,21.4 -20.3098,21.4 -7.6931,0 -12.82184,-3.9 -16.30938,-8.5 -0.30772,-0.4 -0.92317,-0.2 -0.92317,0.3 z m 33.23421,-13 V 43 c 0,-10.7 -7.59053,-17.6 -16.41196,-17.6 -8.71885,0 -17.0274,7.1 -17.0274,17.5 v 0.2 c 0,10.5 8.41113,17.5 17.0274,17.5 9.02658,0 16.41196,-6.4 16.41196,-17.4 z"
   class="st2" /><path
   style="fill:#4bafff;stroke:none;stroke-width:1.01279187;stroke-opacity:1"
   inkscape:connector-curvature="0"
   id="path4540"
   d="m 243.28109,51.6 v -0.2 c 0,-8.5 7.48796,-13.3 18.2583,-13.3 5.53904,0 9.43688,0.6 13.23214,1.6 0.30773,0.1 0.61545,-0.2 0.61545,-0.5 v -1.1 c 0,-8.2 -5.12874,-12.5 -13.74501,-12.5 -4.92359,0 -8.924,1.2 -12.61669,3 -0.30773,0.1 -0.61545,0 -0.71803,-0.3 l -1.02574,-2.5 c -0.10258,-0.3 0,-0.5 0.30772,-0.7 4.41071,-2 8.82143,-3.3 14.36046,-3.3 5.64161,0 10.1549,1.5 13.23214,4.5 2.76952,2.7 4.30814,6.5 4.30814,11.5 v 24.9 c 0,0.3 -0.20515,0.5 -0.51287,0.5 h -2.8721 c -0.30772,0 -0.51287,-0.2 -0.51287,-0.5 v -6.3 c -2.87209,3.9 -8.00083,7.8 -16.00166,7.8 -8.00083,0.2 -16.30938,-4.1 -16.30938,-12.6 z m 32.20847,-3.4 V 44 c 0,-0.2 -0.10258,-0.4 -0.4103,-0.5 -3.48754,-0.9 -8.00083,-1.7 -13.84759,-1.7 -8.82143,0 -13.74502,3.8 -13.74502,9.5 v 0.2 c 0,5.9 5.74419,9.4 12.10382,9.4 8.61628,-0.2 15.89909,-5.3 15.89909,-12.7 z"
   class="st2" /><path
   style="fill:#4bafff;stroke:none;stroke-width:1.01279187;stroke-opacity:1"
   inkscape:connector-curvature="0"
   id="path4542"
   d="m 292.92726,46.7 v 16.2 c 0,0.3 -0.20515,0.5 -0.51287,0.5 h -2.97467 c -0.30773,0 -0.51288,-0.2 -0.51288,-0.5 V 23.1 c 0,-0.3 0.20515,-0.5 0.51288,-0.5 h 2.97467 c 0.30772,0 0.51287,0.2 0.51287,0.5 v 9 c 0,0.5 0.71802,0.7 0.92317,0.2 3.48754,-6.1 9.7446,-10.4 17.02741,-10.4 0.30772,0 0.51287,0.2 0.51287,0.5 v 3.3 c 0,0.3 -0.20515,0.5 -0.51287,0.5 -15.38621,0.4 -17.95058,12.7 -17.95058,20.5 z"
   class="st2" /></svg>