<?xml version="1.0" encoding="UTF-8"?>
<svg width="311px" height="101px" viewBox="0 0 311 101" version="1.1" xmlns="http://www.w3.org/2000/svg" xmlns:xlink="http://www.w3.org/1999/xlink">
    <title>Untitled</title>
    <g id="Page-1" stroke="none" stroke-width="1" fill="none" fill-rule="evenodd">
        <g id="logo" transform="translate(0.697618, 0.003298)" fill-rule="nonzero">
            <path d="M65.2023821,61.996702 C49.3391484,61.996702 36.4779152,49.1399243 36.4723977,33.2766915 C36.4668838,17.4134588 49.3191731,4.54774903 65.182403,4.53670183 C81.0456328,4.52566884 93.9158176,17.3734769 93.9323821,33.236702 C93.9323821,49.108703 81.0743745,61.9801456 65.2023821,61.996702 Z M65.2023821,7.15670198 C54.6323745,7.14862094 45.0994145,13.511758 41.0525851,23.2764033 C37.0057557,33.0410486 39.2428737,44.2821404 46.7198641,51.7534013 C54.1968546,59.2246622 65.4396579,61.4531624 75.2011982,57.3988489 C84.9627384,53.3445353 91.3185658,43.8067003 91.3024129,33.236702 C91.2858617,18.8272986 79.6117781,7.14874211 65.2023821,7.12670198 L65.2023821,7.15670198 Z" id="Shape" fill="#19F3BE"></path>
            <path d="M33.3023821,66.4967093 C32.9553076,66.4978762 32.622874,66.3569533 32.3823821,66.106702 L0.382382083,34.166702 C-0.127460694,33.6554163 -0.127460694,32.8279877 0.382382083,32.316702 L32.3023821,0.366701978 C32.8221332,-0.122233993 33.632631,-0.122233993 34.1523821,0.366701978 L66.1023821,32.366702 C66.6122249,32.8779877 66.6122249,33.7054163 66.1023821,34.216702 L34.1823821,66.106702 C33.9491674,66.3436627 33.6345778,66.4830831 33.3023821,66.4967093 L33.3023821,66.4967093 Z M3.16238208,33.236702 L33.3023821,63.336702 L63.4023821,33.236702 L33.3023821,3.13670198 L3.16238208,33.236702 Z" id="Shape" fill="#FF036A"></path>
            <path d="M47.3023821,100.487139 C47.0733154,100.487139 46.8484631,100.425126 46.6523821,100.306702 L19.4123821,84.566702 C19.0088686,84.3337365 18.76089,83.9026353 18.7623754,83.436702 L18.7623754,51.996702 C18.763446,51.5288232 19.0102782,51.0959176 19.4123821,50.856702 L46.6823821,35.076702 C47.0851485,34.8465225 47.5796156,34.8465225 47.9823821,35.076702 L75.3023821,50.816702 C75.6978273,51.0754972 75.9262372,51.5247032 75.9023821,51.996702 L75.9023821,83.436702 C75.9144013,83.8925288 75.6867193,84.3213299 75.3023821,84.566702 L47.9823821,100.306702 C47.7776186,100.430557 47.5416058,100.493031 47.3023821,100.487139 Z M21.3823821,82.676702 L47.3823821,97.676702 L73.3823821,82.676702 L73.3823821,52.676702 L47.3023821,37.726702 L21.3523821,52.726702 L21.3823821,82.676702 Z" id="Shape" fill="#4BAFFF"></path>
            <path d="M65.2023821,61.996702 C64.7088769,62.0399436 64.2331933,61.8010986 63.9731035,61.3794703 C63.7130137,60.9578419 63.7130137,60.4255621 63.9731035,60.0039337 C64.2331933,59.5823053 64.7088769,59.3434603 65.2023821,59.386702 C79.6273869,59.3646296 91.3079173,47.6617226 91.3023821,33.236702 C91.3023821,32.513209 91.8888891,31.926702 92.6123821,31.926702 C93.3358751,31.926702 93.9223821,32.513209 93.9223821,33.236702 C93.9223821,49.1048035 81.0704683,61.9746323 65.2023821,61.996702 Z" id="Path" fill="#19F3BE"></path>
            <path d="M50.4423821,49.2968536 C50.0967841,49.3004969 49.7645665,49.1632766 49.5223821,48.916702 C49.0125393,48.4054163 49.0125393,47.5779877 49.5223821,47.066702 L64.3023821,32.316702 C64.8132455,31.8030772 65.6437573,31.8008386 66.1573821,32.311702 C66.6710069,32.8225654 66.6732455,33.6530772 66.1623821,34.166702 L51.3723821,48.916702 C51.1271218,49.1648148 50.7912141,49.3020674 50.4423821,49.2968536 L50.4423821,49.2968536 Z" id="Path" fill="#FF036A"></path>
        </g>
        <g id="codebar" transform="translate(104.548018, 10.360000)" fill="#4BAFFF" fill-rule="nonzero">
            <path d="M0.00198235409,24.98 L0.00198235409,24.87 C-0.0955657684,19.1064 3.41487848,13.8946854 8.79265751,11.8190906 C14.1704365,9.74349576 20.2720405,11.2453671 24.0719824,15.58 C24.1343066,15.6402882 24.1694964,15.723288 24.1694964,15.81 C24.1694964,15.8967121 24.1343066,15.9797119 24.0719824,16.04 L22.6919824,17.46 C22.6316942,17.5223243 22.5486944,17.5575141 22.4619824,17.5575141 C22.3752703,17.5575141 22.2922705,17.5223243 22.2319824,17.46 C19.9819824,15.21 17.4119824,13.3 13.5619824,13.3 C7.49198235,13.3 2.78198235,18.38 2.78198235,24.77 L2.78198235,24.87 C2.78198235,31.31 7.65198235,36.44 13.7819824,36.44 C17.1632061,36.3506566 20.3444712,34.8182624 22.5219824,32.23 C22.6466531,32.1067216 22.8473116,32.1067216 22.9719824,32.23 L24.2719824,33.37 C24.334888,33.4320166 24.3703037,33.5166645 24.3703037,33.605 C24.3703037,33.6933356 24.334888,33.7779835 24.2719824,33.84 C21.6019824,36.84 18.3919824,38.84 13.6019824,38.84 C6.02130673,38.7630474 -0.0646184004,32.5607737 0.00198235409,24.98 L0.00198235409,24.98 Z" id="Path"></path>
            <path d="M28.0619824,24.98 L28.0619824,24.869995 C28.0085004,21.180679 29.4346564,17.6235848 32.021977,14.9930483 C34.6092975,12.3625118 38.1422816,10.8776335 41.8319824,10.869995 C45.4950148,10.8668433 49.0058385,12.3349975 51.5761764,14.9448212 C54.1465143,17.5546449 55.5609784,21.0874414 55.5019824,24.75 L55.5019824,24.85 C55.5581869,28.5401192 54.1329164,32.098788 51.5450078,34.7299223 C48.9570993,37.3610565 45.4225262,38.8450755 41.7319824,38.8500174 C38.0698688,38.8558415 34.5589988,37.3899231 31.9883634,34.7816778 C29.417728,32.1734326 28.0029545,28.6416425 28.0619824,24.98 L28.0619824,24.98 Z M52.7319824,24.98 L52.7319824,24.87 C52.7319824,18.43 47.9119824,13.3 41.7319824,13.3 C35.3919824,13.3 30.8419824,18.48 30.8419824,24.77 L30.8419824,24.87 C30.8419824,31.31 35.6619824,36.44 41.8419824,36.44 C48.1719824,36.44 52.7319824,31.26 52.7319824,24.98 L52.7319824,24.98 Z" id="Shape"></path>
            <path d="M60.1119824,24.98 L60.1119824,24.87 C60.1119824,16.18 66.6519824,10.87 73.1119824,10.87 C77.287087,10.8716779 81.1884447,12.9479047 83.5219824,16.41 C83.5999543,16.5334829 83.7516363,16.5885104 83.8906459,16.5437446 C84.0296554,16.4989788 84.1207216,16.3657782 84.1119824,16.22 L84.1119824,0.330000038 C84.1092751,0.243411695 84.1417904,0.159425513 84.2020979,0.0972333325 C84.2624055,0.0350411519 84.3453517,0 84.4319824,0 L86.3419824,0 C86.5242363,0 86.6721439,0.147746071 86.6721439,0.330000038 L86.6721439,37.89 C86.6747893,37.9783521 86.6409238,38.0639297 86.5784179,38.1264356 C86.515912,38.1889415 86.4303344,38.222807 86.3419824,38.22 L84.4519824,38.22 C84.3653517,38.2200423 84.2824055,38.1849589 84.2220979,38.1227667 C84.1617904,38.0605746 84.1292751,37.9765884 84.1319824,37.89 L84.1319824,33.3 C84.1407216,33.1542219 84.0496554,33.0210213 83.9106459,32.9762555 C83.7716363,32.9314897 83.6199543,32.9865172 83.5419824,33.11 C81.2519824,36.25 77.9919824,38.85 73.1319824,38.85 C66.6519824,38.85 60.1119824,33.64 60.1119824,24.98 Z M84.2419824,24.92 L84.2419824,24.82 C84.3279664,21.8523632 83.2268656,18.9729758 81.182691,16.8199288 C79.1385164,14.6668817 76.3200861,13.4179842 73.3519824,13.35 C67.5419824,13.35 62.8819824,17.59 62.8819824,24.77 L62.8819824,24.87 C62.8819824,31.87 67.7519824,36.39 73.3519824,36.39 C76.3174343,36.314077 79.1311456,35.0627302 81.1736274,32.911466 C83.2161093,30.7602018 84.3199007,27.8854002 84.2419824,24.92 Z" id="Shape"></path>
            <path d="M92.4519824,24.92 L92.4519824,24.82 C92.4519824,17.07 97.9019824,10.89 105.121982,10.89 C112.611982,10.89 117.371982,16.96 117.371982,24.89 C117.371982,25.23 117.371982,25.41 117.371982,25.64 C117.361407,25.808876 117.221189,25.9403308 117.051982,25.94 L95.5519824,25.94 C95.4607555,25.9423847 95.374589,25.9824402 95.3139605,26.0506473 C95.253332,26.1188543 95.223655,26.2091228 95.2319824,26.3 C95.8419824,32.73 100.531982,36.46 105.671982,36.46 C109.089074,36.4768354 112.347381,35.0189802 114.611982,32.46 C114.736653,32.3367216 114.937312,32.3367216 115.061982,32.46 L116.341982,33.64 C116.407519,33.7005719 116.444784,33.785759 116.444784,33.875 C116.444784,33.9642411 116.407519,34.0494282 116.341982,34.11 C113.627592,37.2300003 109.666464,38.9815443 105.531982,38.89 C98.5419824,38.85 92.4519824,33.25 92.4519824,24.92 Z M114.251982,23.64 C114.343082,23.6401675 114.430198,23.602668 114.492694,23.5363848 C114.555189,23.4701017 114.587504,23.3809322 114.581982,23.29 C114.101982,18.03 111.021982,13.29 105.031982,13.29 C99.8519824,13.29 95.8219824,17.56 95.2219824,23.29 C95.2135291,23.3825919 95.244528,23.4744537 95.3073548,23.542992 C95.3701816,23.6115303 95.4590062,23.6503851 95.5519824,23.6500029 L114.251982,23.64 Z" id="Shape"></path>
            <path d="M124.821982,33.5 L124.821982,37.89 C124.821982,38.072254 124.674236,38.22 124.491982,38.22 L122.581982,38.22 C122.399728,38.22 122.251982,38.072254 122.251982,37.89 L122.251982,0.330000038 C122.251982,0.242478597 122.28675,0.158541805 122.348637,0.0966548004 C122.410524,0.0347677955 122.494461,3.8225906e-08 122.581982,3.8225906e-08 L124.451982,3.8225906e-08 C124.539504,3.8225906e-08 124.623441,0.0347677955 124.685328,0.0966548004 C124.747215,0.158541805 124.781982,0.242478597 124.781982,0.330000038 L124.781982,16.44 C124.783344,16.5802417 124.8732,16.7043025 125.006024,16.7493277 C125.138848,16.7943529 125.285622,16.7505053 125.371982,16.64 C127.651982,13.49 130.921982,10.89 135.771982,10.89 C142.211982,10.89 148.771982,16.07 148.771982,24.77 L148.771982,24.87 C148.771982,33.56 142.221982,38.87 135.771982,38.87 C131.624581,38.8358109 127.761907,36.754758 125.451982,33.31 C125.418042,33.1974614 125.326641,33.1115783 125.21221,33.084702 C125.097778,33.0578258 124.977701,33.0940396 124.89721,33.179702 C124.816719,33.2653645 124.788042,33.3874614 124.821982,33.5 L124.821982,33.5 Z M146.021982,24.98 L146.021982,24.87 C146.021982,17.87 141.161982,13.35 135.551982,13.35 C132.58653,13.4259231 129.772819,14.6772699 127.730337,16.8285341 C125.687855,18.9797982 124.584064,21.8545998 124.661982,24.82 L124.661982,24.92 C124.575998,27.8876368 125.677099,30.7670242 127.721274,32.9200713 C129.765448,35.0731184 132.583879,36.3220159 135.551982,36.39 C141.361982,36.39 146.021982,32.15 146.021982,24.98 Z" id="Shape"></path>
            <path d="M151.991982,30.47 L151.991982,30.37 C151.991982,24.82 156.761982,21.68 163.671982,21.68 C166.517179,21.6382476 169.355321,21.9745203 172.111982,22.68 C172.208857,22.7042567 172.311505,22.6833397 172.391163,22.6231102 C172.470822,22.5628807 172.518921,22.4698182 172.521982,22.37 L172.521982,21.64 C172.521982,16.24 169.221982,13.47 163.721982,13.47 C160.911772,13.489901 158.146253,14.1752835 155.651982,15.47 C155.572904,15.5103497 155.480617,15.5160344 155.397184,15.4856952 C155.313751,15.455356 155.246672,15.3917199 155.211982,15.31 L154.521982,13.67 C154.451975,13.5042897 154.527586,13.313039 154.691982,13.24 C157.552753,11.8336636 160.694301,11.0918618 163.881982,11.07 C167.491982,11.07 170.371982,12.07 172.311982,14 C174.091982,15.78 175.031982,18.24 175.031982,21.54 L175.031982,37.89 C175.031982,38.072254 174.884236,38.22 174.701982,38.22 L172.841982,38.22 C172.755352,38.2200423 172.672406,38.1849589 172.612098,38.1227667 C172.55179,38.0605746 172.519275,37.9765884 172.521982,37.89 L172.521982,33.77 C170.1729,37.0531587 166.347572,38.9564556 162.311982,38.85 C157.331982,38.85 151.991982,36.02 151.991982,30.47 Z M172.571982,28.22 L172.571982,25.44 C172.571982,25.2886178 172.468849,25.1566987 172.321982,25.12 C169.445656,24.3673478 166.485149,23.9842629 163.511982,23.98 C157.861982,23.98 154.711982,26.49 154.711982,30.21 L154.711982,30.32 C154.711982,34.19 158.381982,36.44 162.461982,36.44 C167.911982,36.44 172.571982,33.09 172.571982,28.22 Z" id="Shape"></path>
            <path d="M183.671982,27.28 L183.671982,37.89 C183.671982,38.072254 183.524236,38.22 183.341982,38.22 L181.451982,38.22 C181.269728,38.22 181.121982,38.072254 181.121982,37.89 L181.121982,11.89 C181.121982,11.7077461 181.269728,11.56 181.451982,11.56 L183.361982,11.56 C183.544236,11.56 183.691982,11.7077461 183.691982,11.89 L183.691982,17.76 C183.684549,17.9129401 183.786502,18.0497138 183.935193,18.0862772 C184.083884,18.1228406 184.23764,18.0489461 184.301982,17.91 C186.398692,13.8098825 190.587423,11.2020224 195.191982,11.13 C195.374236,11.13 195.521982,11.2777461 195.521982,11.46 L195.521982,13.64 C195.521982,13.8167312 195.378713,13.96 195.201982,13.96 C185.341982,14.1 183.671982,22.16 183.671982,27.28 Z" id="Path"></path>
        </g>
        <path d="M112.565611,81.29 C115.407611,81.29 117.669611,79.608 117.669611,76.969 L117.669611,76.911 C117.669611,74.301 115.175611,73.431 112.797611,72.764 L112.361885,72.6376576 C110.414128,72.0660345 108.679611,71.432 108.679611,69.893 L108.679611,69.835 C108.679611,68.356 110.013611,67.254 112.043611,67.254 C113.609611,67.254 115.233611,67.834 116.596611,68.733 L117.350611,67.544 C115.871611,66.558 113.870611,65.92 112.101611,65.92 C109.230611,65.92 107.229611,67.631 107.229611,70.009 L107.229611,70.067 C107.229611,72.706 109.897611,73.431 112.304611,74.127 C114.363611,74.707 116.219611,75.345 116.219611,77.085 L116.219611,77.143 C116.219611,78.854 114.653611,79.956 112.652611,79.956 C110.767611,79.956 108.969611,79.26 107.345611,78.013 L106.504611,79.144 C108.070611,80.42 110.419611,81.29 112.565611,81.29 Z M127.010833,81.348 C129.823833,81.348 131.650833,79.956 132.665833,78.535 L132.665833,81 L134.057833,81 L134.057833,71.778 C134.057833,67.95 131.679833,65.978 127.880833,65.978 C125.850833,65.978 124.255833,66.5 122.631833,67.254 L123.153833,68.501 C124.516833,67.805 125.995833,67.312 127.793833,67.312 C130.838833,67.312 132.665833,68.849 132.665833,71.836 L132.665833,72.474 C131.244833,72.097 129.823833,71.836 127.764833,71.836 C123.936833,71.836 121.297833,73.576 121.297833,76.65 L121.297833,76.708 C121.297833,79.782 124.255833,81.348 127.010833,81.348 Z M127.097833,80.014 C124.835833,80.014 122.805833,78.767 122.805833,76.621 L122.805833,76.563 C122.805833,74.504 124.545833,73.112 127.677833,73.112 C129.794833,73.112 131.447833,73.46 132.694833,73.779 L132.694833,75.461 C132.694833,78.158 130.113833,80.014 127.097833,80.014 Z M145.255056,81.116 L151.896056,66.21 L150.301056,66.21 L144.646056,79.405 L139.049056,66.21 L137.396056,66.21 L144.037056,81.116 L145.255056,81.116 Z M159.874278,81.348 C162.687278,81.348 164.514278,79.956 165.529278,78.535 L165.529278,81 L166.921278,81 L166.921278,71.778 C166.921278,67.95 164.543278,65.978 160.744278,65.978 C158.714278,65.978 157.119278,66.5 155.495278,67.254 L156.017278,68.501 C157.380278,67.805 158.859278,67.312 160.657278,67.312 C163.702278,67.312 165.529278,68.849 165.529278,71.836 L165.529278,72.474 C164.108278,72.097 162.687278,71.836 160.628278,71.836 C156.800278,71.836 154.161278,73.576 154.161278,76.65 L154.161278,76.708 C154.161278,79.782 157.119278,81.348 159.874278,81.348 Z M159.961278,80.014 C157.699278,80.014 155.669278,78.767 155.669278,76.621 L155.669278,76.563 C155.669278,74.504 157.409278,73.112 160.541278,73.112 C162.658278,73.112 164.311278,73.46 165.558278,73.779 L165.558278,75.461 C165.558278,78.158 162.977278,80.014 159.961278,80.014 Z M173.7685,81 L173.7685,72.445 C173.7685,69.371 176.0015,67.167 178.9015,67.167 C181.8885,67.167 183.5995,69.168 183.5995,72.213 L183.5995,81 L185.0205,81 L185.0205,71.952 C185.0205,68.414 182.8455,65.862 179.1045,65.862 C176.4075,65.862 174.7545,67.225 173.7685,68.965 L173.7685,66.21 L172.3475,66.21 L172.3475,81 L173.7685,81 Z M191.867722,81 L191.867722,72.445 C191.867722,69.371 194.100722,67.167 197.000722,67.167 C199.987722,67.167 201.698722,69.168 201.698722,72.213 L201.698722,81 L203.119722,81 L203.119722,71.952 C203.119722,68.414 200.944722,65.862 197.203722,65.862 C194.506722,65.862 192.853722,67.225 191.867722,68.965 L191.867722,66.21 L190.446722,66.21 L190.446722,81 L191.867722,81 Z M213.040944,81.348 C215.853944,81.348 217.680944,79.956 218.695944,78.535 L218.695944,81 L220.087944,81 L220.087944,71.778 C220.087944,67.95 217.709944,65.978 213.910944,65.978 C211.880944,65.978 210.285944,66.5 208.661944,67.254 L209.183944,68.501 C210.546944,67.805 212.025944,67.312 213.823944,67.312 C216.868944,67.312 218.695944,68.849 218.695944,71.836 L218.695944,72.474 C217.274944,72.097 215.853944,71.836 213.794944,71.836 C209.966944,71.836 207.327944,73.576 207.327944,76.65 L207.327944,76.708 C207.327944,79.782 210.285944,81.348 213.040944,81.348 Z M213.127944,80.014 C210.865944,80.014 208.835944,78.767 208.835944,76.621 L208.835944,76.563 C208.835944,74.504 210.575944,73.112 213.707944,73.112 C215.824944,73.112 217.477944,73.46 218.724944,73.779 L218.724944,75.461 C218.724944,78.158 216.143944,80.014 213.127944,80.014 Z M226.935167,81 L226.935167,72.445 C226.935167,69.371 229.168167,67.167 232.068167,67.167 C235.055167,67.167 236.766167,69.168 236.766167,72.213 L236.766167,81 L238.187167,81 L238.187167,71.952 C238.187167,68.414 236.012167,65.862 232.271167,65.862 C229.574167,65.862 227.921167,67.225 226.935167,68.965 L226.935167,59.83 L225.514167,59.83 L225.514167,81 L226.935167,81 Z" id="savannah" fill="#4BAFFF" fill-rule="nonzero"></path>
    </g>
</svg>