<?xml version="1.0" encoding="UTF-8"?>
<svg width="311px" height="101px" viewBox="0 0 311 101" version="1.1" xmlns="http://www.w3.org/2000/svg" xmlns:xlink="http://www.w3.org/1999/xlink">
    <title>Untitled</title>
    <g id="Page-1" stroke="none" stroke-width="1" fill="none" fill-rule="evenodd">
        <g id="logo" transform="translate(0.697618, 0.003298)" fill-rule="nonzero">
            <path d="M65.2023821,61.996702 C49.3391484,61.996702 36.4779152,49.1399243 36.4723977,33.2766915 C36.4668838,17.4134588 49.3191731,4.54774903 65.182403,4.53670183 C81.0456328,4.52566884 93.9158176,17.3734769 93.9323821,33.236702 C93.9323821,49.108703 81.0743745,61.9801456 65.2023821,61.996702 Z M65.2023821,7.15670198 C54.6323745,7.14862094 45.0994145,13.511758 41.0525851,23.2764033 C37.0057557,33.0410486 39.2428737,44.2821404 46.7198641,51.7534013 C54.1968546,59.2246622 65.4396579,61.4531624 75.2011982,57.3988489 C84.9627384,53.3445353 91.3185658,43.8067003 91.3024129,33.236702 C91.2858617,18.8272986 79.6117781,7.14874211 65.2023821,7.12670198 L65.2023821,7.15670198 Z" id="Shape" fill="#19F3BE"></path>
            <path d="M33.3023821,66.4967093 C32.9553076,66.4978762 32.622874,66.3569533 32.3823821,66.106702 L0.382382083,34.166702 C-0.127460694,33.6554163 -0.127460694,32.8279877 0.382382083,32.316702 L32.3023821,0.366701978 C32.8221332,-0.122233993 33.632631,-0.122233993 34.1523821,0.366701978 L66.1023821,32.366702 C66.6122249,32.8779877 66.6122249,33.7054163 66.1023821,34.216702 L34.1823821,66.106702 C33.9491674,66.3436627 33.6345778,66.4830831 33.3023821,66.4967093 L33.3023821,66.4967093 Z M3.16238208,33.236702 L33.3023821,63.336702 L63.4023821,33.236702 L33.3023821,3.13670198 L3.16238208,33.236702 Z" id="Shape" fill="#FF036A"></path>
            <path d="M47.3023821,100.487139 C47.0733154,100.487139 46.8484631,100.425126 46.6523821,100.306702 L19.4123821,84.566702 C19.0088686,84.3337365 18.76089,83.9026353 18.7623754,83.436702 L18.7623754,51.996702 C18.763446,51.5288232 19.0102782,51.0959176 19.4123821,50.856702 L46.6823821,35.076702 C47.0851485,34.8465225 47.5796156,34.8465225 47.9823821,35.076702 L75.3023821,50.816702 C75.6978273,51.0754972 75.9262372,51.5247032 75.9023821,51.996702 L75.9023821,83.436702 C75.9144013,83.8925288 75.6867193,84.3213299 75.3023821,84.566702 L47.9823821,100.306702 C47.7776186,100.430557 47.5416058,100.493031 47.3023821,100.487139 Z M21.3823821,82.676702 L47.3823821,97.676702 L73.3823821,82.676702 L73.3823821,52.676702 L47.3023821,37.726702 L21.3523821,52.726702 L21.3823821,82.676702 Z" id="Shape" fill="#4BAFFF"></path>
            <path d="M65.2023821,61.996702 C64.7088769,62.0399436 64.2331933,61.8010986 63.9731035,61.3794703 C63.7130137,60.9578419 63.7130137,60.4255621 63.9731035,60.0039337 C64.2331933,59.5823053 64.7088769,59.3434603 65.2023821,59.386702 C79.6273869,59.3646296 91.3079173,47.6617226 91.3023821,33.236702 C91.3023821,32.513209 91.8888891,31.926702 92.6123821,31.926702 C93.3358751,31.926702 93.9223821,32.513209 93.9223821,33.236702 C93.9223821,49.1048035 81.0704683,61.9746323 65.2023821,61.996702 Z" id="Path" fill="#19F3BE"></path>
            <path d="M50.4423821,49.2968536 C50.0967841,49.3004969 49.7645665,49.1632766 49.5223821,48.916702 C49.0125393,48.4054163 49.0125393,47.5779877 49.5223821,47.066702 L64.3023821,32.316702 C64.8132455,31.8030772 65.6437573,31.8008386 66.1573821,32.311702 C66.6710069,32.8225654 66.6732455,33.6530772 66.1623821,34.166702 L51.3723821,48.916702 C51.1271218,49.1648148 50.7912141,49.3020674 50.4423821,49.2968536 L50.4423821,49.2968536 Z" id="Path" fill="#FF036A"></path>
        </g>
        <g id="codebar" transform="translate(104.548018, 10.360000)" fill="#4BAFFF" fill-rule="nonzero">
            <path d="M0.00198235409,24.98 L0.00198235409,24.87 C-0.0955657684,19.1064 3.41487848,13.8946854 8.79265751,11.8190906 C14.1704365,9.74349576 20.2720405,11.2453671 24.0719824,15.58 C24.1343066,15.6402882 24.1694964,15.723288 24.1694964,15.81 C24.1694964,15.8967121 24.1343066,15.9797119 24.0719824,16.04 L22.6919824,17.46 C22.6316942,17.5223243 22.5486944,17.5575141 22.4619824,17.5575141 C22.3752703,17.5575141 22.2922705,17.5223243 22.2319824,17.46 C19.9819824,15.21 17.4119824,13.3 13.5619824,13.3 C7.49198235,13.3 2.78198235,18.38 2.78198235,24.77 L2.78198235,24.87 C2.78198235,31.31 7.65198235,36.44 13.7819824,36.44 C17.1632061,36.3506566 20.3444712,34.8182624 22.5219824,32.23 C22.6466531,32.1067216 22.8473116,32.1067216 22.9719824,32.23 L24.2719824,33.37 C24.334888,33.4320166 24.3703037,33.5166645 24.3703037,33.605 C24.3703037,33.6933356 24.334888,33.7779835 24.2719824,33.84 C21.6019824,36.84 18.3919824,38.84 13.6019824,38.84 C6.02130673,38.7630474 -0.0646184004,32.5607737 0.00198235409,24.98 L0.00198235409,24.98 Z" id="Path"></path>
            <path d="M28.0619824,24.98 L28.0619824,24.869995 C28.0085004,21.180679 29.4346564,17.6235848 32.021977,14.9930483 C34.6092975,12.3625118 38.1422816,10.8776335 41.8319824,10.869995 C45.4950148,10.8668433 49.0058385,12.3349975 51.5761764,14.9448212 C54.1465143,17.5546449 55.5609784,21.0874414 55.5019824,24.75 L55.5019824,24.85 C55.5581869,28.5401192 54.1329164,32.098788 51.5450078,34.7299223 C48.9570993,37.3610565 45.4225262,38.8450755 41.7319824,38.8500174 C38.0698688,38.8558415 34.5589988,37.3899231 31.9883634,34.7816778 C29.417728,32.1734326 28.0029545,28.6416425 28.0619824,24.98 L28.0619824,24.98 Z M52.7319824,24.98 L52.7319824,24.87 C52.7319824,18.43 47.9119824,13.3 41.7319824,13.3 C35.3919824,13.3 30.8419824,18.48 30.8419824,24.77 L30.8419824,24.87 C30.8419824,31.31 35.6619824,36.44 41.8419824,36.44 C48.1719824,36.44 52.7319824,31.26 52.7319824,24.98 L52.7319824,24.98 Z" id="Shape"></path>
            <path d="M60.1119824,24.98 L60.1119824,24.87 C60.1119824,16.18 66.6519824,10.87 73.1119824,10.87 C77.287087,10.8716779 81.1884447,12.9479047 83.5219824,16.41 C83.5999543,16.5334829 83.7516363,16.5885104 83.8906459,16.5437446 C84.0296554,16.4989788 84.1207216,16.3657782 84.1119824,16.22 L84.1119824,0.330000038 C84.1092751,0.243411695 84.1417904,0.159425513 84.2020979,0.0972333325 C84.2624055,0.0350411519 84.3453517,0 84.4319824,0 L86.3419824,0 C86.5242363,0 86.6721439,0.147746071 86.6721439,0.330000038 L86.6721439,37.89 C86.6747893,37.9783521 86.6409238,38.0639297 86.5784179,38.1264356 C86.515912,38.1889415 86.4303344,38.222807 86.3419824,38.22 L84.4519824,38.22 C84.3653517,38.2200423 84.2824055,38.1849589 84.2220979,38.1227667 C84.1617904,38.0605746 84.1292751,37.9765884 84.1319824,37.89 L84.1319824,33.3 C84.1407216,33.1542219 84.0496554,33.0210213 83.9106459,32.9762555 C83.7716363,32.9314897 83.6199543,32.9865172 83.5419824,33.11 C81.2519824,36.25 77.9919824,38.85 73.1319824,38.85 C66.6519824,38.85 60.1119824,33.64 60.1119824,24.98 Z M84.2419824,24.92 L84.2419824,24.82 C84.3279664,21.8523632 83.2268656,18.9729758 81.182691,16.8199288 C79.1385164,14.6668817 76.3200861,13.4179842 73.3519824,13.35 C67.5419824,13.35 62.8819824,17.59 62.8819824,24.77 L62.8819824,24.87 C62.8819824,31.87 67.7519824,36.39 73.3519824,36.39 C76.3174343,36.314077 79.1311456,35.0627302 81.1736274,32.911466 C83.2161093,30.7602018 84.3199007,27.8854002 84.2419824,24.92 Z" id="Shape"></path>
            <path d="M92.4519824,24.92 L92.4519824,24.82 C92.4519824,17.07 97.9019824,10.89 105.121982,10.89 C112.611982,10.89 117.371982,16.96 117.371982,24.89 C117.371982,25.23 117.371982,25.41 117.371982,25.64 C117.361407,25.808876 117.221189,25.9403308 117.051982,25.94 L95.5519824,25.94 C95.4607555,25.9423847 95.374589,25.9824402 95.3139605,26.0506473 C95.253332,26.1188543 95.223655,26.2091228 95.2319824,26.3 C95.8419824,32.73 100.531982,36.46 105.671982,36.46 C109.089074,36.4768354 112.347381,35.0189802 114.611982,32.46 C114.736653,32.3367216 114.937312,32.3367216 115.061982,32.46 L116.341982,33.64 C116.407519,33.7005719 116.444784,33.785759 116.444784,33.875 C116.444784,33.9642411 116.407519,34.0494282 116.341982,34.11 C113.627592,37.2300003 109.666464,38.9815443 105.531982,38.89 C98.5419824,38.85 92.4519824,33.25 92.4519824,24.92 Z M114.251982,23.64 C114.343082,23.6401675 114.430198,23.602668 114.492694,23.5363848 C114.555189,23.4701017 114.587504,23.3809322 114.581982,23.29 C114.101982,18.03 111.021982,13.29 105.031982,13.29 C99.8519824,13.29 95.8219824,17.56 95.2219824,23.29 C95.2135291,23.3825919 95.244528,23.4744537 95.3073548,23.542992 C95.3701816,23.6115303 95.4590062,23.6503851 95.5519824,23.6500029 L114.251982,23.64 Z" id="Shape"></path>
            <path d="M124.821982,33.5 L124.821982,37.89 C124.821982,38.072254 124.674236,38.22 124.491982,38.22 L122.581982,38.22 C122.399728,38.22 122.251982,38.072254 122.251982,37.89 L122.251982,0.330000038 C122.251982,0.242478597 122.28675,0.158541805 122.348637,0.0966548004 C122.410524,0.0347677955 122.494461,3.8225906e-08 122.581982,3.8225906e-08 L124.451982,3.8225906e-08 C124.539504,3.8225906e-08 124.623441,0.0347677955 124.685328,0.0966548004 C124.747215,0.158541805 124.781982,0.242478597 124.781982,0.330000038 L124.781982,16.44 C124.783344,16.5802417 124.8732,16.7043025 125.006024,16.7493277 C125.138848,16.7943529 125.285622,16.7505053 125.371982,16.64 C127.651982,13.49 130.921982,10.89 135.771982,10.89 C142.211982,10.89 148.771982,16.07 148.771982,24.77 L148.771982,24.87 C148.771982,33.56 142.221982,38.87 135.771982,38.87 C131.624581,38.8358109 127.761907,36.754758 125.451982,33.31 C125.418042,33.1974614 125.326641,33.1115783 125.21221,33.084702 C125.097778,33.0578258 124.977701,33.0940396 124.89721,33.179702 C124.816719,33.2653645 124.788042,33.3874614 124.821982,33.5 L124.821982,33.5 Z M146.021982,24.98 L146.021982,24.87 C146.021982,17.87 141.161982,13.35 135.551982,13.35 C132.58653,13.4259231 129.772819,14.6772699 127.730337,16.8285341 C125.687855,18.9797982 124.584064,21.8545998 124.661982,24.82 L124.661982,24.92 C124.575998,27.8876368 125.677099,30.7670242 127.721274,32.9200713 C129.765448,35.0731184 132.583879,36.3220159 135.551982,36.39 C141.361982,36.39 146.021982,32.15 146.021982,24.98 Z" id="Shape"></path>
            <path d="M151.991982,30.47 L151.991982,30.37 C151.991982,24.82 156.761982,21.68 163.671982,21.68 C166.517179,21.6382476 169.355321,21.9745203 172.111982,22.68 C172.208857,22.7042567 172.311505,22.6833397 172.391163,22.6231102 C172.470822,22.5628807 172.518921,22.4698182 172.521982,22.37 L172.521982,21.64 C172.521982,16.24 169.221982,13.47 163.721982,13.47 C160.911772,13.489901 158.146253,14.1752835 155.651982,15.47 C155.572904,15.5103497 155.480617,15.5160344 155.397184,15.4856952 C155.313751,15.455356 155.246672,15.3917199 155.211982,15.31 L154.521982,13.67 C154.451975,13.5042897 154.527586,13.313039 154.691982,13.24 C157.552753,11.8336636 160.694301,11.0918618 163.881982,11.07 C167.491982,11.07 170.371982,12.07 172.311982,14 C174.091982,15.78 175.031982,18.24 175.031982,21.54 L175.031982,37.89 C175.031982,38.072254 174.884236,38.22 174.701982,38.22 L172.841982,38.22 C172.755352,38.2200423 172.672406,38.1849589 172.612098,38.1227667 C172.55179,38.0605746 172.519275,37.9765884 172.521982,37.89 L172.521982,33.77 C170.1729,37.0531587 166.347572,38.9564556 162.311982,38.85 C157.331982,38.85 151.991982,36.02 151.991982,30.47 Z M172.571982,28.22 L172.571982,25.44 C172.571982,25.2886178 172.468849,25.1566987 172.321982,25.12 C169.445656,24.3673478 166.485149,23.9842629 163.511982,23.98 C157.861982,23.98 154.711982,26.49 154.711982,30.21 L154.711982,30.32 C154.711982,34.19 158.381982,36.44 162.461982,36.44 C167.911982,36.44 172.571982,33.09 172.571982,28.22 Z" id="Shape"></path>
            <path d="M183.671982,27.28 L183.671982,37.89 C183.671982,38.072254 183.524236,38.22 183.341982,38.22 L181.451982,38.22 C181.269728,38.22 181.121982,38.072254 181.121982,37.89 L181.121982,11.89 C181.121982,11.7077461 181.269728,11.56 181.451982,11.56 L183.361982,11.56 C183.544236,11.56 183.691982,11.7077461 183.691982,11.89 L183.691982,17.76 C183.684549,17.9129401 183.786502,18.0497138 183.935193,18.0862772 C184.083884,18.1228406 184.23764,18.0489461 184.301982,17.91 C186.398692,13.8098825 190.587423,11.2020224 195.191982,11.13 C195.374236,11.13 195.521982,11.2777461 195.521982,11.46 L195.521982,13.64 C195.521982,13.8167312 195.378713,13.96 195.201982,13.96 C185.341982,14.1 183.671982,22.16 183.671982,27.28 Z" id="Path"></path>
        </g>
        <path d="M108.381667,85.64 L108.381667,77.81 C109.599667,79.666 111.513667,81.348 114.471667,81.348 C118.038667,81.348 121.663667,78.419 121.663667,73.605 L121.663667,73.547 C121.663667,68.733 118.038667,65.862 114.471667,65.862 C111.542667,65.862 109.657667,67.573 108.381667,69.516 L108.381667,66.21 L106.960667,66.21 L106.960667,85.64 L108.381667,85.64 Z M114.326667,79.985 C111.252667,79.985 108.294667,77.433 108.294667,73.634 L108.294667,73.576 C108.294667,69.806 111.252667,67.225 114.326667,67.225 C117.429667,67.225 120.126667,69.719 120.126667,73.605 L120.126667,73.663 C120.126667,77.636 117.545667,79.985 114.326667,79.985 Z M132.657889,81.348 C135.499889,81.348 137.268889,80.188 138.776889,78.564 L137.790889,77.694 C136.572889,78.999 135.006889,80.014 132.715889,80.014 C129.815889,80.014 127.176889,77.868 126.915889,74.185 L139.182889,74.185 C139.206089,73.9994 139.210729,73.9066 139.211657,73.772968 L139.211889,73.605 C139.211889,69.226 136.572889,65.862 132.425889,65.862 C128.423889,65.862 125.407889,69.284 125.407889,73.576 L125.407889,73.634 C125.407889,78.245 128.771889,81.348 132.657889,81.348 Z M137.674889,72.909 L126.915889,72.909 C127.176889,69.632 129.438889,67.167 132.367889,67.167 C135.760889,67.167 137.471889,69.922 137.674889,72.909 Z M148.611111,81.261 C149.539111,81.261 150.264111,81.087 151.018111,80.739 L151.018111,79.405 C150.177111,79.782 149.568111,79.927 148.843111,79.927 C147.132111,79.927 145.885111,79.173 145.885111,77.056 L145.885111,67.515 L151.076111,67.515 L151.076111,66.21 L145.885111,66.21 L145.885111,61.483 L144.464111,61.483 L144.464111,66.21 L142.318111,66.21 L142.318111,67.515 L144.464111,67.515 L144.464111,77.201 C144.464111,80.014 146.320111,81.261 148.611111,81.261 Z M161.403333,81.348 C164.245333,81.348 166.014333,80.188 167.522333,78.564 L166.536333,77.694 C165.318333,78.999 163.752333,80.014 161.461333,80.014 C158.561333,80.014 155.922333,77.868 155.661333,74.185 L167.928333,74.185 C167.951533,73.9994 167.956173,73.9066 167.957101,73.772968 L167.957333,73.605 C167.957333,69.226 165.318333,65.862 161.171333,65.862 C157.169333,65.862 154.153333,69.284 154.153333,73.576 L154.153333,73.634 C154.153333,78.245 157.517333,81.348 161.403333,81.348 Z M166.420333,72.909 L155.661333,72.909 C155.922333,69.632 158.184333,67.167 161.113333,67.167 C164.506333,67.167 166.217333,69.922 166.420333,72.909 Z M173.847556,81 L173.847556,74.939 C173.847556,70.125 176.834556,67.544 180.256556,67.544 L180.401556,67.544 L180.401556,65.978 C177.472556,65.862 175.007556,67.776 173.847556,70.415 L173.847556,66.21 L172.426556,66.21 L172.426556,81 L173.847556,81 Z M191.859778,81.348 C195.426778,81.348 199.051778,78.419 199.051778,73.605 L199.051778,73.547 C199.051778,68.733 195.426778,65.862 191.859778,65.862 C188.930778,65.862 187.045778,67.573 185.769778,69.516 L185.769778,59.83 L184.348778,59.83 L184.348778,81 L185.769778,81 L185.769778,77.81 C186.987778,79.666 188.901778,81.348 191.859778,81.348 Z M191.714778,79.985 C188.640778,79.985 185.682778,77.433 185.682778,73.634 L185.682778,73.576 C185.682778,69.806 188.640778,67.225 191.714778,67.225 C194.817778,67.225 197.514778,69.719 197.514778,73.605 L197.514778,73.663 C197.514778,77.636 194.933778,79.985 191.714778,79.985 Z M210.365,81.348 C214.773,81.348 217.992,77.752 217.992,73.605 L217.992,73.547 C217.992,69.4 214.802,65.862 210.423,65.862 C206.015,65.862 202.796,69.458 202.796,73.605 L202.796,73.663 C202.796,77.81 205.986,81.348 210.365,81.348 Z M210.423,80.014 C207.001,80.014 204.333,77.172 204.333,73.605 L204.333,73.547 C204.333,70.067 206.856,67.196 210.365,67.196 C213.787,67.196 216.455,70.038 216.455,73.605 L216.455,73.663 C216.455,77.143 213.932,80.014 210.423,80.014 Z M224.114222,81 L224.114222,74.939 C224.114222,70.125 227.101222,67.544 230.523222,67.544 L230.668222,67.544 L230.668222,65.978 C227.739222,65.862 225.274222,67.776 224.114222,70.415 L224.114222,66.21 L222.693222,66.21 L222.693222,81 L224.114222,81 Z M240.444444,81.348 C244.852444,81.348 248.071444,77.752 248.071444,73.605 L248.071444,73.547 C248.071444,69.4 244.881444,65.862 240.502444,65.862 C236.094444,65.862 232.875444,69.458 232.875444,73.605 L232.875444,73.663 C232.875444,77.81 236.065444,81.348 240.444444,81.348 Z M240.502444,80.014 C237.080444,80.014 234.412444,77.172 234.412444,73.605 L234.412444,73.547 C234.412444,70.067 236.935444,67.196 240.444444,67.196 C243.866444,67.196 246.534444,70.038 246.534444,73.605 L246.534444,73.663 C246.534444,77.143 244.011444,80.014 240.502444,80.014 Z M258.398667,81.348 C261.095667,81.348 262.748667,79.985 263.734667,78.245 L263.734667,81 L265.155667,81 L265.155667,66.21 L263.734667,66.21 L263.734667,74.765 C263.734667,77.839 261.501667,80.043 258.601667,80.043 C255.614667,80.043 253.903667,78.042 253.903667,74.997 L253.903667,66.21 L252.482667,66.21 L252.482667,75.258 C252.482667,78.796 254.657667,81.348 258.398667,81.348 Z M277.367889,85.698 C281.572889,85.698 284.617889,83.204 284.617889,78.709 L284.617889,66.21 L283.196889,66.21 L283.196889,69.168 C281.978889,67.428 279.977889,65.862 277.019889,65.862 C273.452889,65.862 269.914889,68.617 269.914889,72.88 L269.914889,72.938 C269.914889,77.172 273.452889,79.898 277.019889,79.898 C279.948889,79.898 281.920889,78.303 283.196889,76.476 L283.196889,78.622 C283.196889,82.421 280.789889,84.364 277.396889,84.364 C275.221889,84.364 273.191889,83.639 271.422889,82.276 L270.581889,83.436 C272.611889,84.944 274.902889,85.698 277.367889,85.698 Z M277.164889,78.535 C274.119889,78.535 271.451889,76.215 271.451889,72.88 L271.451889,72.822 C271.451889,69.371 274.061889,67.225 277.164889,67.225 C280.238889,67.225 283.283889,69.429 283.283889,72.851 L283.283889,72.909 C283.283889,76.273 280.238889,78.535 277.164889,78.535 Z M291.755111,81 L291.755111,72.445 C291.755111,69.371 293.988111,67.167 296.888111,67.167 C299.875111,67.167 301.586111,69.168 301.586111,72.213 L301.586111,81 L303.007111,81 L303.007111,71.952 C303.007111,68.414 300.832111,65.862 297.091111,65.862 C294.394111,65.862 292.741111,67.225 291.755111,68.965 L291.755111,59.83 L290.334111,59.83 L290.334111,81 L291.755111,81 Z" id="peterborough" fill="#4BAFFF" fill-rule="nonzero"></path>
    </g>
</svg>